<svg width="400" height="400" viewBox="0 0 400 400" fill="none" xmlns="http://www.w3.org/2000/svg">
<rect width="400" height="400" rx="12" fill="#0F4C81"/>
<path d="M55 348.008V343.301C66.7201 342.445 75.4387 341.161 81.1558 339.449C86.8729 337.452 90.589 334.028 92.3042 329.177C94.3051 324.042 95.3056 316.481 95.3056 306.494V86.5138C95.3056 76.5277 94.3051 69.1094 92.3042 64.259C90.589 59.1233 86.8729 55.5568 81.1558 53.5595C75.4387 51.5623 66.7201 50.2784 55 49.7078V45C60.4313 45.2853 68.0064 45.428 77.7255 45.428C87.4446 45.428 99.3076 45.428 113.315 45.428C121.033 45.428 128.465 45.428 135.611 45.428C142.758 45.428 149.332 45.428 155.335 45.428C161.624 45.1427 167.055 45 171.629 45C176.489 45 180.205 45 182.777 45C216.794 45 243.522 51.705 262.96 65.115C282.398 78.5249 292.117 96.7853 292.117 119.896C292.117 136.159 287.115 150.425 277.11 162.694C267.391 174.963 253.67 184.521 235.947 191.368C218.224 197.931 197.499 201.212 173.773 201.212H117.174V197.788H170.343C196.356 197.788 215.508 191.939 227.8 180.241C240.092 168.258 246.237 149.997 246.237 125.46C246.237 100.352 240.092 81.5208 227.8 68.9668C215.508 56.4127 196.784 50.1357 171.629 50.1357H138.613V306.494C138.613 316.481 139.47 324.042 141.185 329.177C143.186 334.028 147.046 337.452 152.763 339.449C158.48 341.161 167.198 342.445 178.918 343.301V348.008C167.198 347.152 146.474 346.724 116.745 346.724C87.0158 346.724 66.4342 347.152 55 348.008ZM295.547 354C281.826 354 270.964 350.291 262.96 342.873C254.956 335.169 249.096 323.043 245.38 306.494L232.516 251.713C229.658 238.303 226.085 228.032 221.797 220.899C217.509 213.766 211.649 208.916 204.217 206.348C196.784 203.78 186.636 202.496 173.773 202.496H123.177V199.072H170.343C195.784 199.072 215.651 200.784 229.944 204.208C244.522 207.632 255.385 213.909 262.531 223.039C269.963 231.884 275.681 244.723 279.683 261.557L289.973 303.927C293.118 317.337 296.691 326.609 300.693 331.745C304.981 336.596 310.698 339.021 317.844 339.021C322.132 338.735 325.991 337.594 329.421 335.597C332.852 333.314 336.711 329.463 340.999 324.042L344 327.465C336.568 336.881 329.136 343.729 321.703 348.008C314.557 352.003 305.838 354 295.547 354Z" fill="#D4AF37"/>
</svg>
